<?xml version="1.0" encoding="UTF-8"?>
<svg version="1.1" xmlns="http://www.w3.org/2000/svg" width="834" height="834">
<path d="M0 0 C2.00411025 0.00390486 4.00804533 0.00000546 6.012146 -0.00683594 C21.96208436 -0.05760083 37.66851754 0.27513619 53.50482178 2.25390625 C54.59810791 2.38394043 55.69139404 2.51397461 56.81781006 2.64794922 C85.50672223 6.33473706 114.59052889 12.8744128 141.62591553 23.171875 C144.53965687 24.26699895 147.46922062 25.29942194 150.41107178 26.31640625 C160.9517472 29.98299893 170.87731467 34.16122232 180.74798584 39.35742188 C183.43010875 40.72606492 186.18629706 41.91761637 188.94232178 43.12890625 C195.02843731 45.89188158 200.6931654 49.21121648 206.41204834 52.65185547 C210.10842626 54.87018468 213.77410483 56.9430198 217.69232178 58.75390625 C222.61306364 61.11385388 226.87039079 64.24390786 231.2567749 67.45874023 C234.82040593 70.06893516 238.42259751 72.5061038 242.19232178 74.81640625 C246.98386836 77.81024849 251.26555508 81.20640988 255.58294678 84.84375 C257.71281562 86.60060706 259.84644487 88.28899978 262.05169678 89.9453125 C262.64676025 90.39285889 263.24182373 90.84040527 263.85491943 91.30151367 C265.01704168 92.17062765 266.18325577 93.03430331 267.35394287 93.8918457 C271.39516046 96.92492228 271.39516046 96.92492228 272.50482178 100.25390625 C274.16645948 100.93301035 275.83410052 101.59746683 277.50482178 102.25390625 C280.03997803 104.2421875 280.03997803 104.2421875 282.56732178 106.56640625 C283.40392334 107.32566406 284.2405249 108.08492188 285.10247803 108.8671875 C287.50482178 111.25390625 287.50482178 111.25390625 289.55950928 113.85546875 C291.42673209 116.15762699 293.14454421 117.64053506 295.56732178 119.31640625 C298.48691092 121.33938452 300.56676996 123.25324659 302.50482178 126.25390625 C302.50482178 126.91390625 302.50482178 127.57390625 302.50482178 128.25390625 C303.16482178 128.25390625 303.82482178 128.25390625 304.50482178 128.25390625 C309.2130731 132.54672363 313.30384391 137.47348316 317.50482178 142.25390625 C318.0952124 142.91648438 318.68560303 143.5790625 319.29388428 144.26171875 C332.78969235 159.48301826 344.42059485 176.22559933 355.50482178 193.25390625 C356.15193115 194.24003906 356.79904053 195.22617188 357.46575928 196.2421875 C361.46987186 202.42320845 365.04819728 208.75412908 368.50482178 215.25390625 C369.43681396 216.92839844 369.43681396 216.92839844 370.38763428 218.63671875 C380.9218249 237.73974733 390.53353477 258.09620502 396.79779053 279.01708984 C397.57808735 281.48569463 398.45467037 283.90620853 399.34857178 286.3359375 C408.91842678 312.74734025 414.19419856 341.40247505 417.50482178 369.25390625 C417.58988983 369.95101715 417.67495789 370.64812805 417.76260376 371.36636353 C419.47815444 385.79605303 419.84665935 400.13026137 419.82049561 414.65307617 C419.81734647 418.28790647 419.84086269 421.92191065 419.8661499 425.55664062 C419.92981912 448.46161877 417.83760492 471.00766239 413.19232178 493.44140625 C412.88188337 494.97715325 412.57175018 496.51296197 412.26190186 498.04882812 C411.5029969 501.78161321 410.72368555 505.50970061 409.93255615 509.23577881 C409.53693374 511.10239626 409.14755417 512.97033393 408.75872803 514.83837891 C405.41263635 530.70632071 400.43635934 545.7400955 394.74139404 560.91308594 C393.44036725 564.42804163 392.20229015 567.96189013 390.96575928 571.5 C388.99281657 577.04138223 386.78117475 582.35066233 384.19232178 587.62890625 C383.80262207 588.43505371 383.41292236 589.24120117 383.01141357 590.07177734 C382.21948403 591.7051823 381.42407358 593.33690485 380.62493896 594.96679688 C379.61876683 597.02124773 378.62632846 599.08163419 377.63763428 601.14453125 C369.21951277 618.52820202 359.9227378 635.65579084 348.50482178 651.25390625 C347.90282959 652.16398438 347.3008374 653.0740625 346.68060303 654.01171875 C339.08210612 665.33443406 330.97421027 677.40839719 321.50482178 687.25390625 C320.84482178 687.25390625 320.18482178 687.25390625 319.50482178 687.25390625 C319.26376709 687.97449219 319.0227124 688.69507813 318.77435303 689.4375 C317.32768895 692.64686862 315.57157314 694.72922031 313.19232178 697.31640625 C312.43306396 698.15300781 311.67380615 698.98960937 310.89154053 699.8515625 C308.556146 702.20224602 306.08996999 704.18746092 303.50482178 706.25390625 C302.36665454 707.49438065 301.26040234 708.76509718 300.19232178 710.06640625 C297.20190428 713.57576822 293.98555269 716.50338494 290.46966553 719.47265625 C288.47309799 721.28266579 286.79055008 723.18444039 285.06732178 725.25390625 C282.04341875 728.80784172 278.78982568 731.51660502 275.05560303 734.296875 C272.67850881 736.12064867 270.4118404 738.0365195 268.15228271 740.00292969 C255.17510645 751.26900569 240.88965489 760.89039434 226.50482178 770.25390625 C225.51868896 770.90101563 224.53255615 771.548125 223.51654053 772.21484375 C218.28395973 775.60454955 212.96714424 778.71256104 207.46575928 781.64453125 C205.28000015 782.83256919 203.1274966 784.04491671 200.98138428 785.30078125 C200.37334961 785.655354 199.76531494 786.00992676 199.13885498 786.37524414 C197.4107882 787.38669939 195.68621654 788.40411912 193.96185303 789.421875 C191.48896749 790.73236462 189.34213719 791.73537674 186.74700928 792.6640625 C182.56448154 794.16107788 178.66501343 796.09114722 174.69329834 798.07275391 C163.76705524 803.50990476 152.89810904 807.76671434 141.2543335 811.36181641 C138.4498693 812.2717358 135.70314621 813.28348351 132.94622803 814.328125 C117.75398691 819.95874626 102.36621171 823.44012 86.50482178 826.62890625 C85.47015778 826.83996002 84.43549377 827.05101379 83.36947632 827.26846313 C57.29441796 832.54223579 31.66129505 834.82376221 5.06732178 834.69140625 C3.11014725 834.68684418 3.11014725 834.68684418 1.11343384 834.68218994 C-29.16550003 834.57822199 -57.69323701 831.72230743 -87.25396729 824.97558594 C-90.32422222 824.29197087 -93.3991121 823.67052163 -96.48736572 823.07421875 C-110.28796139 820.36566872 -123.30227622 816.18943183 -136.49761963 811.34863281 C-139.2223678 810.35353827 -141.95498599 809.38740539 -144.69439697 808.43359375 C-156.01114017 804.45192532 -166.74645667 799.56542262 -177.49517822 794.25390625 C-178.91420837 793.5633073 -180.3334719 792.87318766 -181.75299072 792.18359375 C-189.41874662 788.43290761 -196.87454193 784.41914339 -204.24908447 780.125 C-207.21751342 778.41395612 -210.21665936 776.79274091 -213.24517822 775.19140625 C-217.77166727 772.74232347 -221.93724657 769.96466742 -226.11236572 766.9609375 C-228.29248093 765.39911726 -230.50206067 763.91060686 -232.74517822 762.44140625 C-243.10028773 755.56239357 -252.95663033 748.22596092 -262.49517822 740.25390625 C-263.88543213 739.19816406 -263.88543213 739.19816406 -265.30377197 738.12109375 C-266.02693604 737.50492188 -266.7501001 736.88875 -267.49517822 736.25390625 C-267.49517822 735.59390625 -267.49517822 734.93390625 -267.49517822 734.25390625 C-268.21576416 734.01285156 -268.9363501 733.77179687 -269.67877197 733.5234375 C-272.8881406 732.07677342 -274.97049228 730.32065762 -277.55767822 727.94140625 C-278.39427979 727.18214844 -279.23088135 726.42289063 -280.09283447 725.640625 C-282.44372034 723.30502944 -284.43055317 720.84095667 -286.49517822 718.25390625 C-287.73425801 717.09402538 -289.00490617 715.96676071 -290.30767822 714.87890625 C-293.11514101 712.47175711 -295.84776168 710.02438264 -298.49517822 707.44140625 C-299.07267822 706.87808594 -299.65017822 706.31476562 -300.24517822 705.734375 C-301.49517822 704.25390625 -301.49517822 704.25390625 -301.49517822 702.25390625 C-302.08685791 701.99867188 -302.6785376 701.7434375 -303.28814697 701.48046875 C-305.72110281 700.12834816 -307.03012879 698.75857168 -308.80767822 696.62890625 C-309.4135376 695.9121875 -310.01939697 695.19546875 -310.64361572 694.45703125 C-311.56013916 693.36648438 -311.56013916 693.36648438 -312.49517822 692.25390625 C-313.63876792 690.96025274 -314.78457535 689.66855605 -315.93267822 688.37890625 C-328.74012515 673.68137354 -340.19718611 657.79248157 -350.49517822 641.25390625 C-351.7237753 639.35770374 -352.95291179 637.46185059 -354.18267822 635.56640625 C-356.92375505 631.25093518 -359.41931209 626.85055829 -361.82330322 622.33984375 C-363.09613865 619.99045126 -364.39578317 617.66995207 -365.72955322 615.35546875 C-372.87878034 602.92880147 -372.87878034 602.92880147 -375.28814697 596.23999023 C-376.55208858 593.11311527 -378.00304484 590.13261875 -379.49624634 587.11071777 C-384.48355466 576.95366895 -388.4343399 566.6405896 -391.99078369 555.90771484 C-392.8802683 553.22345674 -393.78589317 550.54506201 -394.69439697 547.8671875 C-399.23010317 534.43219313 -402.81482762 521.1931254 -405.49517822 507.25390625 C-405.99492843 504.74864807 -406.49492818 502.24343967 -406.99517822 499.73828125 C-407.49615357 497.1603456 -407.99614985 494.5822195 -408.49517822 492.00390625 C-408.74267822 490.7715625 -408.99017822 489.53921875 -409.24517822 488.26953125 C-413.64560661 465.35063338 -415.05388456 442.47541318 -414.94200897 419.16558075 C-414.93250957 417.09209418 -414.92768264 415.01863289 -414.92346191 412.94512939 C-414.86726675 392.48263624 -414.27451422 372.42436244 -410.49517822 352.25390625 C-410.25960205 350.98595215 -410.02402588 349.71799805 -409.78131104 348.41162109 C-408.37178342 341.00192791 -406.81767838 333.63387047 -405.16070557 326.27587891 C-404.59904759 323.72554786 -404.08489494 321.17660931 -403.60845947 318.609375 C-400.57903121 302.7350965 -394.78292822 287.48719348 -389.49517822 272.25390625 C-389.14487549 271.23393555 -388.79457275 270.21396484 -388.43365479 269.16308594 C-385.04237403 259.33086273 -381.12808988 250.03476303 -376.32330322 240.80859375 C-374.80775221 237.861689 -373.43230249 234.91896881 -372.12017822 231.87890625 C-368.81773633 224.48454982 -364.7303015 217.49619564 -360.73980713 210.45800781 C-359.59775674 208.43556157 -358.47128817 206.40545605 -357.35064697 204.37109375 C-353.7548716 197.88854449 -349.87715946 191.81780362 -345.42095947 185.890625 C-343.51853891 183.28589096 -341.8117565 180.6242546 -340.12017822 177.87890625 C-336.01570907 171.32484503 -331.28904162 165.30971763 -326.49517822 159.25390625 C-325.77845947 158.34125 -325.06174072 157.42859375 -324.32330322 156.48828125 C-320.73763568 151.95755405 -317.06712312 147.52710407 -313.22564697 143.2109375 C-312.00252946 141.82768271 -310.79851234 140.42742684 -309.60845947 139.015625 C-308.99357666 138.28988281 -308.37869385 137.56414062 -307.74517822 136.81640625 C-307.19345947 136.15769531 -306.64174072 135.49898437 -306.07330322 134.8203125 C-304.49517822 133.25390625 -304.49517822 133.25390625 -301.49517822 132.25390625 C-300.79931176 130.93557697 -300.1383541 129.59872855 -299.49517822 128.25390625 C-295.25047126 122.93721626 -290.87140993 118.23521314 -285.16705322 114.51953125 C-283.1694286 113.00731074 -281.72180694 111.30379948 -280.12017822 109.37890625 C-277.01266939 105.67486671 -273.6435606 102.88882612 -269.77642822 100.0078125 C-267.59972044 98.33428203 -265.6250804 96.56503507 -263.62017822 94.69140625 C-256.73763306 88.45792673 -249.03117632 83.20803855 -241.52764893 77.75854492 C-239.88017304 76.53891803 -238.27268645 75.26540042 -236.67877197 73.9765625 C-234.61671289 72.34978601 -232.63600449 71.14270029 -230.30767822 69.94140625 C-227.07256699 68.19739677 -224.13522534 66.31462576 -221.18267822 64.12890625 C-214.61377196 59.42067609 -207.46170776 55.74908487 -200.36627197 51.91015625 C-195.53308041 49.2926824 -190.80334047 46.5372117 -186.10064697 43.69140625 C-182.98434735 41.97206853 -179.77525644 40.63387443 -176.49517822 39.25390625 C-174.73141069 38.42505336 -172.96767882 37.59606185 -171.20928955 36.75585938 C-163.76621779 33.20674033 -156.25449249 30.05868002 -148.49517822 27.25390625 C-147.42686768 26.8676709 -147.42686768 26.8676709 -146.3369751 26.47363281 C-141.28009425 24.65425965 -136.20608546 22.89035569 -131.11920166 21.15673828 C-128.63514614 20.30206417 -126.16318928 19.41811915 -123.69049072 18.53125 C-111.58718714 14.3187963 -99.2821629 11.55618162 -86.74517822 9.00390625 C-85.92641205 8.83714386 -85.10764587 8.67038147 -84.2640686 8.49856567 C-78.68298234 7.37035105 -73.09344857 6.2933589 -67.49517822 5.25390625 C-66.75163086 5.1149292 -66.0080835 4.97595215 -65.24200439 4.83276367 C-43.49713234 0.82278231 -22.09348626 -0.07542048 0 0 Z " fill="#000000" transform="translate(414.49517822265625,-0.25390625)"/>
<path d="M0 0 C26.07 0 52.14 0 79 0 C79.33 59.07 79.66 118.14 80 179 C86.74522835 167.53311181 93.44573807 156.05579451 99.9921875 144.4765625 C103.91213115 137.55923914 107.97169355 130.75376838 112.16796875 124 C114.57019157 120.0662961 116.81821642 116.05937618 119 112 C122.73413515 113.24471172 122.834015 114.07398795 124.5625 117.5 C127.70041721 123.53018939 131.1357659 129.34811633 134.66040039 135.16015625 C135.07797607 135.85882813 135.49555176 136.5575 135.92578125 137.27734375 C136.30130127 137.89859131 136.67682129 138.51983887 137.0637207 139.15991211 C138.0454619 141.08934716 138.5572038 142.88701275 139 145 C139.66 145 140.32 145 141 145 C141.36351562 145.67804688 141.72703125 146.35609375 142.1015625 147.0546875 C144.64419606 151.76181937 147.2212652 156.42758453 150 161 C159 175.85714286 159 175.85714286 159 179 C159.66 179 160.32 179 161 179 C161.61488281 180.10859375 162.22976563 181.2171875 162.86328125 182.359375 C163.67953471 183.82300189 164.49594944 185.28653884 165.3125 186.75 C165.71662109 187.47960937 166.12074219 188.20921875 166.53710938 188.9609375 C168.16848144 191.87883876 169.71474339 194.63954502 171.79296875 197.265625 C173 199 173 199 173 203 C173.66 203 174.32 203 175 203 C178 208.75 178 208.75 178 211 C178.66 211 179.32 211 180 211 C180.49306641 211.91265625 180.49306641 211.91265625 180.99609375 212.84375 C182.65501879 215.90084764 184.32618948 218.95102565 186 222 C186.31614258 222.5784668 186.63228516 223.15693359 186.95800781 223.75292969 C192.09967877 233.13609775 197.58811996 242.26244031 203.25634766 251.33666992 C207.08184089 257.47379773 210.74188034 263.67544989 214.2890625 269.9765625 C217.27873603 275.25968421 220.380847 280.48595213 223.66796875 285.58984375 C225 288 225 288 225 291 C225.66 291 226.32 291 227 291 C227.58007812 292.05058594 228.16015625 293.10117187 228.7578125 294.18359375 C232.50786048 300.93528957 236.2650226 307.56244977 240.6640625 313.91796875 C242.66928109 317.04306088 244.22758848 320.35923781 245.83203125 323.703125 C246.87187812 325.74804124 247.99266452 327.56657532 249.3125 329.4375 C251 332 251 332 251 335 C240.26479543 335.18538418 229.52997169 335.32751818 218.79349232 335.41449738 C213.80796071 335.45624463 208.82352427 335.5128625 203.83862305 335.60351562 C199.0274703 335.69046117 194.21737051 335.73827761 189.40549278 335.75901794 C187.57013047 335.77379681 185.73482566 335.80265854 183.89991188 335.84584045 C169.49722762 336.17129541 169.49722762 336.17129541 165.80914307 333.28607178 C164.47811918 331.19472074 163.7260289 329.35960707 163 327 C162.34257812 325.87078125 161.68515625 324.7415625 161.0078125 323.578125 C160.38648438 322.47984375 159.76515625 321.3815625 159.125 320.25 C157.08696578 316.65012609 155.04358485 313.05601381 152.9296875 309.5 C152.29289063 308.4275 151.65609375 307.355 151 306.25 C150.4225 305.28578125 149.845 304.3215625 149.25 303.328125 C148 301 148 301 148 299 C147.34 299 146.68 299 146 299 C145.56429687 298.17757813 145.12859375 297.35515625 144.6796875 296.5078125 C140.96758479 289.54962863 137.10185432 282.73791632 133 276 C129 269.3374613 129 269.3374613 129 267 C128.34 267 127.68 267 127 267 C126.16180842 265.37750059 125.3295884 263.75191503 124.5 262.125 C123.80390625 260.76761719 123.80390625 260.76761719 123.09375 259.3828125 C122 257 122 257 122 255 C121.34 255 120.68 255 120 255 C119.32845067 253.71086513 118.66291141 252.41859796 118 251.125 C117.62875 250.40570313 117.2575 249.68640625 116.875 248.9453125 C116 247 116 247 116 245 C115.34 245 114.68 245 114 245 C113.52949219 244.03578125 113.05898438 243.0715625 112.57421875 242.078125 C111.94552821 240.80197704 111.31660993 239.52594126 110.6875 238.25 C110.2244043 237.29867187 110.2244043 237.29867187 109.75195312 236.328125 C108.07917434 232.94735104 106.28593338 229.98522919 104 227 C102.63702622 224.6789526 101.30794303 222.35152688 100 220 C99.59620117 219.28424805 99.19240234 218.56849609 98.77636719 217.83105469 C97.47012077 215.5155715 96.17196955 213.19569032 94.875 210.875 C94.43285156 210.08996094 93.99070312 209.30492187 93.53515625 208.49609375 C91.43590958 204.73520772 89.45446598 201.06923627 88 197 C87.34 197 86.68 197 86 197 C85.16180842 195.37750059 84.3295884 193.75191503 83.5 192.125 C83.0359375 191.22007812 82.571875 190.31515625 82.09375 189.3828125 C81 187 81 187 81 185 C80.34 185 79.68 185 79 185 C79 234.5 79 284 79 335 C52.93 335 26.86 335 0 335 C0 224.45 0 113.9 0 0 Z " fill="#FDFDFD" transform="translate(188,120)"/>
<path d="M0 0 C26.07 0 52.14 0 79 0 C85.82993197 12.52154195 85.82993197 12.52154195 88.6875 18.25 C89.52861328 19.92835938 89.52861328 19.92835938 90.38671875 21.640625 C91.46910446 23.89450323 92.49243821 26.17762704 93.45703125 28.484375 C94.74309776 31.41465313 96.16949562 34.11068426 97.78613281 36.86572266 C100.3108524 41.30480123 102.60973603 45.86818529 104.95361328 50.40454102 C105.86445188 52.16708853 106.77791405 53.92827945 107.69140625 55.68945312 C111.52513482 63.09495268 115.28805524 70.53280447 119 78 C120.27941271 80.5608245 121.56024772 83.12091051 122.84375 85.6796875 C123.60213413 87.20157997 124.35243755 88.7275318 125.09375 90.2578125 C126.49603466 93.1367454 127.77764551 95.71411566 129.75 98.25 C131 100 131 100 131 104 C131.66 104 132.32 104 133 104 C133.33 105.98 133.66 107.96 134 110 C134.66 110 135.32 110 136 110 C138.05405442 113.8164035 140.06192929 117.6553278 142.0625 121.5 C142.93358398 123.11648438 142.93358398 123.11648438 143.82226562 124.765625 C147.08009168 131.08850633 149.01407256 135.04229478 147 142 C145.80859375 144.96875 145.80859375 144.96875 144.4375 147.5 C143.98246094 148.3559375 143.52742187 149.211875 143.05859375 150.09375 C142.70925781 150.7228125 142.35992188 151.351875 142 152 C141.34 152 140.68 152 140 152 C139.938125 152.78375 139.87625 153.5675 139.8125 154.375 C138.16820461 161.71108715 133.9515349 168.2347635 130.2109375 174.69921875 C128.93348906 177.12637079 127.87190142 179.61475771 126.80810547 182.14135742 C125.452943 185.2582311 123.91038587 188.28180862 122.375 191.3125 C121.67439566 192.70438505 120.97387848 194.09631398 120.2734375 195.48828125 C119.90702148 196.2148291 119.54060547 196.94137695 119.16308594 197.68994141 C117.09943864 201.78864643 115.05074623 205.89482944 113 210 C112.2292291 211.54169788 111.45840134 213.08336734 110.6875 214.625 C110.130625 215.73875 109.57375 216.8525 109 218 C108.34 218 107.68 218 107 218 C94.42527858 193.05530588 94.42527858 193.05530588 89.5 182.17993164 C87.9512737 178.80671971 86.28955084 175.9139738 84 173 C83.25397912 171.31334409 82.5112287 169.62475917 81.8125 167.91796875 C80.37724048 164.52992824 78.66742342 161.27821737 77 158 C76.33229431 156.66718669 75.66562235 155.33385498 75 154 C74.67 153.34 74.34 152.68 74 152 C71 146 71 146 69.99609375 143.98828125 C69.34663246 142.69190557 68.69317176 141.39752349 68.03515625 140.10546875 C66.13550422 136.35956856 64.34569605 132.58170974 62.625 128.75 C59.91649999 122.74670883 56.97090744 116.87675852 54 111 C52.81144245 108.62552028 51.6238447 106.25058371 50.4375 103.875 C49.85484375 102.7096875 49.2721875 101.544375 48.671875 100.34375 C46.44791667 95.89583333 44.22395833 91.44791667 42 87 C41.43732422 85.96746094 41.43732422 85.96746094 40.86328125 84.9140625 C40 83 40 83 40 80 C39.34 80 38.68 80 38 80 C35 73.375 35 73.375 35 70 C34.34 70 33.68 70 33 70 C32.74605469 69.34773438 32.49210937 68.69546875 32.23046875 68.0234375 C30.68671587 64.10334593 29.13555332 60.27110664 27.25 56.5 C26 54 26 54 26 52 C25.34 52 24.68 52 24 52 C23.34 49.36 22.68 46.72 22 44 C21.34 44 20.68 44 20 44 C19.80696289 43.46955078 19.61392578 42.93910156 19.41503906 42.39257812 C16.13918115 33.79211729 11.92155302 25.6892823 7.75 17.5 C6.28188227 14.61687473 4.81906557 11.73114911 3.359375 8.84375 C2.85322662 7.85634827 2.85322662 7.85634827 2.33685303 6.84899902 C0 2.22551165 0 2.22551165 0 0 Z " fill="#FCFCFC" transform="translate(446,243)"/>
<path d="M0 0 C5.80519702 -0.08012192 11.37662531 0.1994688 17.11328125 1.08203125 C17.11328125 1.74203125 17.11328125 2.40203125 17.11328125 3.08203125 C19.00046875 3.51515625 19.00046875 3.51515625 20.92578125 3.95703125 C23.96722115 4.65506664 25.41998003 5.2864971 28.11328125 7.08203125 C28.11328125 7.74203125 28.11328125 8.40203125 28.11328125 9.08203125 C28.86480469 9.32953125 29.61632812 9.57703125 30.390625 9.83203125 C36.15709938 12.47948003 39.74623743 18.80250514 42.55078125 24.33203125 C46.4919836 35.20019532 45.64756407 49.97921036 40.98828125 60.4140625 C40.69953125 60.96449219 40.41078125 61.51492187 40.11328125 62.08203125 C39.45328125 62.08203125 38.79328125 62.08203125 38.11328125 62.08203125 C37.88640625 62.80390625 37.65953125 63.52578125 37.42578125 64.26953125 C35.82926182 67.69064431 33.90295084 69.54596798 31.11328125 72.08203125 C30.24703125 72.90703125 29.38078125 73.73203125 28.48828125 74.58203125 C17.82966931 82.95475634 6.21176465 83.63532615 -6.88671875 82.08203125 C-18.43917767 79.3446532 -26.57934458 71.87062677 -32.88671875 62.08203125 C-38.91877797 51.8487295 -39.51508537 39.76888597 -36.76171875 28.26953125 C-33.21985238 17.08641613 -25.23659541 9.10904755 -15.32421875 3.14453125 C-10.24222778 0.53343934 -5.59920169 0.15911128 0 0 Z " fill="#FCFCFC" transform="translate(375.88671875,122.91796875)"/>
<path d="M0 0 C8.20494865 4.74246032 17.18983712 11.58439663 19.953125 21.00390625 C22.58070685 36.01865967 21.07595828 47.22603993 13.35546875 60.1328125 C12.89269531 60.75027344 12.42992187 61.36773438 11.953125 62.00390625 C11.293125 62.00390625 10.633125 62.00390625 9.953125 62.00390625 C9.953125 62.66390625 9.953125 63.32390625 9.953125 64.00390625 C8.2734375 65.29296875 8.2734375 65.29296875 6.078125 66.62890625 C5.35882813 67.07492187 4.63953125 67.5209375 3.8984375 67.98046875 C1.953125 69.00390625 1.953125 69.00390625 -0.046875 69.00390625 C-0.046875 69.66390625 -0.046875 70.32390625 -0.046875 71.00390625 C-10.1617703 74.91934959 -21.33695459 75.77305007 -31.6796875 72.09375 C-41.83696574 67.41737932 -48.95774693 60.09842919 -53.4296875 49.828125 C-57.98077793 36.5408505 -56.26121699 26.59281763 -51.046875 14.00390625 C-50.386875 14.00390625 -49.726875 14.00390625 -49.046875 14.00390625 C-48.6446875 12.79734375 -48.6446875 12.79734375 -48.234375 11.56640625 C-47.8425 10.72078125 -47.450625 9.87515625 -47.046875 9.00390625 C-46.056875 8.67390625 -45.066875 8.34390625 -44.046875 8.00390625 C-44.046875 7.34390625 -44.046875 6.68390625 -44.046875 6.00390625 C-31.38951397 -4.88731138 -14.98739761 -7.29348548 0 0 Z " fill="#FBFBFB" transform="translate(501.046875,504.99609375)"/>
<path d="M0 0 C6.0218836 4.21372543 10.84134955 8.44955678 14.140625 15.12890625 C14.46417969 15.76828125 14.78773438 16.40765625 15.12109375 17.06640625 C18.4924873 25.4236635 18.4537629 37.12308832 15.89453125 45.66015625 C10.55742667 56.88398593 3.02807403 64.4900874 -8.453125 69.09375 C-17.93859117 72.35062683 -29.80436481 72.65619664 -39.00390625 68.17578125 C-40.671875 67.12890625 -40.671875 67.12890625 -43.046875 65.12890625 C-43.046875 64.46890625 -43.046875 63.80890625 -43.046875 63.12890625 C-44.17416016 62.76152344 -44.17416016 62.76152344 -45.32421875 62.38671875 C-52.06737696 59.2715151 -56.374231 50.83925435 -59.046875 44.12890625 C-61.75299151 34.45952068 -61.54615707 23.68579201 -56.796875 14.81640625 C-51.00098744 5.34235928 -43.15378304 -1.90468947 -32.390625 -5.43359375 C-20.97146576 -7.56517014 -9.90319204 -6.08157562 0 0 Z " fill="#FBFBFB" transform="translate(652.046875,242.87109375)"/>
<path d="M0 0 C3.21386193 2.49238272 4.73797602 3.77951989 5.59375 7.765625 C7.48522058 22.82464077 7.48522058 22.82464077 3.4375 28.5625 C-0.75012619 33.13697387 -4.12029192 35.73790288 -10.34765625 36.3046875 C-24.02081422 36.56348544 -24.02081422 36.56348544 -29.6875 31.6875 C-34.07950613 26.58327666 -35.53473685 22.8711989 -35.4375 16.125 C-35.43137695 15.41190674 -35.42525391 14.69881348 -35.41894531 13.96411133 C-35.21988588 7.30251093 -33.9190024 3.82170232 -29.125 -0.8125 C-19.67084568 -6.09570389 -9.29394244 -5.14097356 0 0 Z " fill="#F1F1F1" transform="translate(528,625)"/>
<path d="M0 0 C12 0 12 0 15 2.265625 C15.66 3.25046875 16.32 4.2353125 17 5.25 C18.0209375 6.71179688 18.0209375 6.71179688 19.0625 8.203125 C19.701875 9.12609375 20.34125 10.0490625 21 11 C21.7425 11.73734375 22.485 12.4746875 23.25 13.234375 C25 15 25 15 25 17 C25.66 17 26.32 17 27 17 C27 11.39 27 5.78 27 0 C30.63 0 34.26 0 38 0 C38 12.54 38 25.08 38 38 C27 38 27 38 22.875 34.6875 C20.84584567 32.37193393 19.98957269 30.96871806 19 28 C16.46221127 25.26185953 14.1110644 23.07404293 11 21 C11 26.61 11 32.22 11 38 C7.37 38 3.74 38 0 38 C0 25.46 0 12.92 0 0 Z " fill="#F9F9F9" transform="translate(277,622)"/>
<path d="M0 0 C2.39615767 1.47315955 3.59224651 2.87602209 5.05859375 5.265625 C5.74609375 8.515625 5.74609375 8.515625 6.05859375 11.265625 C2.42859375 11.265625 -1.20140625 11.265625 -4.94140625 11.265625 C-4.94140625 10.605625 -4.94140625 9.945625 -4.94140625 9.265625 C-7.86309514 8.2917287 -9.95170099 8.06956677 -13.00390625 8.015625 C-13.88175781 7.98984375 -14.75960938 7.9640625 -15.6640625 7.9375 C-16.41558594 8.04578125 -17.16710937 8.1540625 -17.94140625 8.265625 C-20.32995449 11.84844735 -20.21039427 13.57955533 -20.19140625 17.828125 C-20.1965625 18.98441406 -20.20171875 20.14070312 -20.20703125 21.33203125 C-20.24603807 24.38796722 -20.24603807 24.38796722 -17.94140625 26.265625 C-15.57338624 26.62248486 -15.57338624 26.62248486 -12.94140625 26.578125 C-12.05453125 26.59488281 -11.16765625 26.61164062 -10.25390625 26.62890625 C-9.49078125 26.50902344 -8.72765625 26.38914062 -7.94140625 26.265625 C-7.28140625 25.275625 -6.62140625 24.285625 -5.94140625 23.265625 C-8.58140625 23.265625 -11.22140625 23.265625 -13.94140625 23.265625 C-13.94140625 20.625625 -13.94140625 17.985625 -13.94140625 15.265625 C-7.34140625 15.265625 -0.74140625 15.265625 6.05859375 15.265625 C6.05859375 22.195625 6.05859375 29.125625 6.05859375 36.265625 C4.07859375 36.265625 2.09859375 36.265625 0.05859375 36.265625 C0.05859375 35.275625 0.05859375 34.285625 0.05859375 33.265625 C-0.93140625 33.265625 -1.92140625 33.265625 -2.94140625 33.265625 C-2.94140625 33.925625 -2.94140625 34.585625 -2.94140625 35.265625 C-10.16664739 37.83459963 -18.08124957 38.85663712 -25.31640625 35.765625 C-29.66642202 33.16993658 -32.3391345 30.09469401 -33.94140625 25.265625 C-34.83560513 17.81110168 -34.86435355 10.8038705 -30.94140625 4.265625 C-22.59245363 -4.97450796 -10.82311142 -4.47852886 0 0 Z " fill="#F5F5F5" transform="translate(360.94140625,623.734375)"/>
<path d="M0 0 C3.96 0 7.92 0 12 0 C12 4.95 12 9.9 12 15 C12.66 15 13.32 15 14 15 C14.268125 14.42765625 14.53625 13.8553125 14.8125 13.265625 C16.04132636 10.92115366 17.42522176 8.87595062 19 6.75 C19.515625 6.04359375 20.03125 5.3371875 20.5625 4.609375 C21.036875 4.07828125 21.51125 3.5471875 22 3 C22.66 3 23.32 3 24 3 C24.33 2.01 24.66 1.02 25 0 C29.95 0 34.9 0 40 0 C36.02941176 6.61764706 36.02941176 6.61764706 34 9 C33.34 9 32.68 9 32 9 C31.29605388 10.31403276 30.63654342 11.6520257 30 13 C29.72414062 13.56589844 29.44828125 14.13179687 29.1640625 14.71484375 C28.8975148 18.42747249 31.24722643 20.9086943 33.3125 23.8125 C36.60614809 28.48062256 38.70294947 32.40333445 40 38 C35.38 38 30.76 38 26 38 C25.4225 36.7625 24.845 35.525 24.25 34.25 C22.57432689 30.92815507 21.08277969 28.2157479 18 26 C15.78141747 26.13641377 15.78141747 26.13641377 14 27 C14 27.66 14 28.32 14 29 C13.34 29 12.68 29 12 29 C12 31.97 12 34.94 12 38 C8.04 38 4.08 38 0 38 C0 25.46 0 12.92 0 0 Z " fill="#F7F7F7" transform="translate(199,622)"/>
<path d="M0 0 C3.96 0 7.92 0 12 0 C12 4.62 12 9.24 12 14 C16.62 14 21.24 14 26 14 C26 9.38 26 4.76 26 0 C29.96 0 33.92 0 38 0 C38 12.54 38 25.08 38 38 C34.04 38 30.08 38 26 38 C26 33.38 26 28.76 26 24 C21.38 24 16.76 24 12 24 C12 28.62 12 33.24 12 38 C8.04 38 4.08 38 0 38 C0 25.46 0 12.92 0 0 Z " fill="#FAFAFA" transform="translate(643,622)"/>
<path d="M0 0 C1.8292616 2.40861717 2.27327251 3.98128579 3 7 C2.67 7.66 2.34 8.32 2 9 C0.39667209 9.08121924 -1.20784026 9.13929134 -2.8125 9.1875 C-4.15248047 9.23970703 -4.15248047 9.23970703 -5.51953125 9.29296875 C-8.49524803 8.94150614 -9.0155819 8.11671264 -11 6 C-14.62535976 5.7496423 -14.62535976 5.7496423 -18 6 C-18 7.32 -18 8.64 -18 10 C-16.700625 10.103125 -15.40125 10.20625 -14.0625 10.3125 C-9.09839647 10.848308 -4.65751666 12.24930225 0 14 C0 14.66 0 15.32 0 16 C1.32 16.33 2.64 16.66 4 17 C4.45913774 25.75762729 4.45913774 25.75762729 2.9375 29.875 C-0.83714725 34.01493569 -3.76133163 35.76071241 -9.2890625 36.3515625 C-17.38736078 36.54231471 -24.30827252 36.41484792 -30.5 30.6875 C-32 28 -32 28 -32 22 C-28.04 22 -24.08 22 -20 22 C-19.67 23.65 -19.34 25.3 -19 27 C-16.03 26.67 -13.06 26.34 -10 26 C-10 24.68 -10 23.36 -10 22 C-10.78375 21.87625 -11.5675 21.7525 -12.375 21.625 C-16.9353326 20.83873576 -21.46567093 19.92299584 -26 19 C-26 18.34 -26 17.68 -26 17 C-26.639375 16.71125 -27.27875 16.4225 -27.9375 16.125 C-30 15 -30 15 -31 13 C-31.24026223 8.11466792 -31.33801575 4.41625198 -29 0 C-21.92219051 -7.07780949 -7.67536716 -4.89464265 0 0 Z " fill="#F0F0F0" transform="translate(431,625)"/>
<path d="M0 0 C3.96 0 7.92 0 12 0 C12.04898438 1.76988281 12.09796875 3.53976562 12.1484375 5.36328125 C12.22346332 7.67970359 12.29901123 9.99610905 12.375 12.3125 C12.4059375 13.47974609 12.436875 14.64699219 12.46875 15.84960938 C12.50742187 16.96787109 12.54609375 18.08613281 12.5859375 19.23828125 C12.6173584 20.26993408 12.6487793 21.30158691 12.68115234 22.36450195 C12.82674629 25.22843236 12.82674629 25.22843236 15 28 C19.17660573 28.26518132 22.04340734 28.31886422 26 27 C26 18.09 26 9.18 26 0 C29.96 0 33.92 0 38 0 C38.10835025 4.33401017 38.18750156 8.66528673 38.25 13 C38.30027344 14.83111328 38.30027344 14.83111328 38.3515625 16.69921875 C38.43006166 23.96039129 38.0970957 28.90874268 34 35 C28.25577147 39.49858673 22.07371524 39.83397495 15 39 C9.77267913 37.89238171 5.23801031 36.50505782 2 32 C2 31.01 2 30.02 2 29 C1.34 29 0.68 29 0 29 C0 19.43 0 9.86 0 0 Z " fill="#F8F8F8" transform="translate(546,622)"/>
<path d="M0 0 C12.87 0 25.74 0 39 0 C39 3.3 39 6.6 39 10 C34.71 10 30.42 10 26 10 C26 19.57 26 29.14 26 39 C21.71 39 17.42 39 13 39 C13 29.43 13 19.86 13 10 C8.71 10 4.42 10 0 10 C0 6.7 0 3.4 0 0 Z " fill="#F0F0F0" transform="translate(594,622)"/>
<path d="M0 0 C2.26921536 -0.13489391 4.5407067 -0.23193995 6.8125 -0.3125 C8.70935547 -0.39951172 8.70935547 -0.39951172 10.64453125 -0.48828125 C14 0 14 0 15.94921875 2.33203125 C17 5 17 5 17 8 C17.99 8.33 18.98 8.66 20 9 C20 9.99 20 10.98 20 12 C20.66 12 21.32 12 22 12 C22.12890625 11.42765625 22.2578125 10.8553125 22.390625 10.265625 C23.48788143 6.18608186 24.70762774 2.78228642 28 0 C32.40519537 -0.70483126 36.57650694 -0.46631259 41 0 C38.56618921 5.17184793 35.83015217 10.10836814 32.875 15 C32.52630859 15.5880542 32.17761719 16.1761084 31.81835938 16.78198242 C30.93534908 18.22410498 29.97367174 19.61747043 29 21 C28.34 21 27.68 21 27 21 C27 26.94 27 32.88 27 39 C22.71 39 18.42 39 14 39 C14.04382813 37.9584375 14.08765625 36.916875 14.1328125 35.84375 C14.2623283 22.4041165 9.30312434 14.04798065 1.1796875 3.67578125 C0 2 0 2 0 0 Z " fill="#F1F1F1" transform="translate(443,622)"/>
<path d="M0 0 C0.99 0.33 1.98 0.66 3 1 C3.02332717 21.71375221 3.04097828 42.42750225 3.05181217 63.14126492 C3.05697552 72.75832495 3.06401895 82.37537684 3.07543945 91.99243164 C3.08538512 100.37151169 3.09185315 108.75058584 3.09408849 117.12967163 C3.0953958 121.56916125 3.09848292 126.00863399 3.10573006 130.44811821 C3.11248842 134.62177273 3.11461734 138.79540333 3.11310768 142.96906281 C3.11338409 144.5054112 3.11539031 146.04176034 3.11920547 147.57810402 C3.12413987 149.66659617 3.12299925 151.75499657 3.12025452 153.8434906 C3.12117631 155.01508948 3.1220981 156.18668837 3.12304783 157.39379025 C3 160 3 160 2 161 C1.41918906 166.36554365 1.41918906 166.36554365 3.5 171 C3.995 171.33 4.49 171.66 5 172 C3.68197635 175.64991166 2.40785992 177.7895201 0 181 C0 121.27 0 61.54 0 0 Z " fill="#040404" transform="translate(267,120)"/>
<path d="M0 0 C3.96 0 7.92 0 12 0 C12 12.54 12 25.08 12 38 C8.04 38 4.08 38 0 38 C0 25.46 0 12.92 0 0 Z " fill="#FAFAFA" transform="translate(251,622)"/>
<path d="M0 0 C2.39615767 1.47315955 3.59224651 2.87602209 5.05859375 5.265625 C5.74609375 8.515625 5.74609375 8.515625 6.05859375 11.265625 C2.42859375 11.265625 -1.20140625 11.265625 -4.94140625 11.265625 C-4.94140625 10.605625 -4.94140625 9.945625 -4.94140625 9.265625 C-7.86309514 8.2917287 -9.95170099 8.06956677 -13.00390625 8.015625 C-13.88175781 7.98984375 -14.75960938 7.9640625 -15.6640625 7.9375 C-16.41558594 8.04578125 -17.16710937 8.1540625 -17.94140625 8.265625 C-20.13134873 11.55053873 -20.29417964 13.09658139 -20.56640625 16.953125 C-20.64117187 17.94699219 -20.7159375 18.94085937 -20.79296875 19.96484375 C-20.84195312 20.72410156 -20.8909375 21.48335937 -20.94140625 22.265625 C-21.27140625 22.265625 -21.60140625 22.265625 -21.94140625 22.265625 C-21.97878906 21.57855469 -22.01617187 20.89148438 -22.0546875 20.18359375 C-22.12042969 19.28253906 -22.18617188 18.38148438 -22.25390625 17.453125 C-22.31191406 16.55980469 -22.36992187 15.66648437 -22.4296875 14.74609375 C-23.01236335 11.92167266 -23.70226234 11.01823887 -25.94140625 9.265625 C-28.01594185 8.0420182 -28.01594185 8.0420182 -30.94140625 8.265625 C-31.93140625 8.760625 -31.93140625 8.760625 -32.94140625 9.265625 C-31.20668425 4.32833932 -29.06386768 1.63758722 -24.50390625 -0.921875 C-16.42106507 -4.76307842 -7.99216584 -3.30710311 0 0 Z " fill="#EDEDED" transform="translate(360.94140625,623.734375)"/>
<path d="M0 0 C0.66 0 1.32 0 2 0 C2.22786458 2.01822917 2.45572917 4.03645833 2.68359375 6.0546875 C2.91292961 8.07404316 2.91292961 8.07404316 4 10 C4.01614884 11.6696807 3.96515778 13.34028286 3.87890625 15.0078125 C3.83056641 15.99394531 3.78222656 16.98007812 3.73242188 17.99609375 C3.67634766 19.02863281 3.62027344 20.06117188 3.5625 21.125 C3.51029297 22.16527344 3.45808594 23.20554687 3.40429688 24.27734375 C3.27439054 26.85185116 3.13941748 29.42599296 3 32 C2.67 32 2.34 32 2 32 C2 25.07 2 18.14 2 11 C-4.6 11 -11.2 11 -18 11 C-18 13.64 -18 16.28 -18 19 C-15.36 19 -12.72 19 -10 19 C-10.66 20.32 -11.32 21.64 -12 23 C-13.60332791 23.08121924 -15.20784026 23.13929134 -16.8125 23.1875 C-18.15248047 23.23970703 -18.15248047 23.23970703 -19.51953125 23.29296875 C-22 23 -22 23 -23.80078125 21.890625 C-25.56754016 19.10524613 -25.39726481 16.83171597 -25.375 13.5625 C-25.38273437 12.42941406 -25.39046875 11.29632812 -25.3984375 10.12890625 C-24.96500062 6.72515189 -24.54104062 5.29137506 -22 3 C-19.625 2.5390625 -19.625 2.5390625 -17 2.625 C-16.13375 2.63789062 -15.2675 2.65078125 -14.375 2.6640625 C-12 3 -12 3 -9 5 C-9 5.66 -9 6.32 -9 7 C-5.37 7 -1.74 7 2 7 C1.34 4.69 0.68 2.38 0 0 Z " fill="#1B1B1B" transform="translate(365,628)"/>
<path d="M0 0 C3.51812928 0.18108018 5.59613424 0.77382497 8.0625 3.4375 C8.99992541 6.24977622 9.19720844 8.02496844 9.1875 10.9375 C9.19136719 12.09765625 9.19136719 12.09765625 9.1953125 13.28125 C9.0625 15.4375 9.0625 15.4375 8.0625 18.4375 C6 19.125 6 19.125 4.0625 19.4375 C4.0625 20.0975 4.0625 20.7575 4.0625 21.4375 C-3.34975029 21.8020369 -3.34975029 21.8020369 -5.67578125 20.359375 C-7.59010936 17.44343249 -7.3342094 14.94817609 -7.3125 11.5 C-7.32023437 10.27410156 -7.32796875 9.04820312 -7.3359375 7.78515625 C-6.68532613 2.31874502 -5.53137919 0.61459769 0 0 Z " fill="#111111" transform="translate(512.9375,630.5625)"/>
<path d="M0 0 C0.33 0 0.66 0 1 0 C1.00238835 0.86821538 1.00477671 1.73643076 1.00723743 2.6309557 C1.06632205 23.73710202 1.14182998 44.84313353 1.23571491 65.94915485 C1.28071877 76.15579002 1.32012277 86.36238993 1.34643555 96.5690918 C1.36937853 105.46318263 1.4027349 114.35716233 1.44870156 123.25116509 C1.47268385 127.96235992 1.49137974 132.67344434 1.49761391 137.38469887 C1.50364222 141.81620595 1.5235598 146.24743037 1.55427551 150.67883301 C1.56309206 152.30784839 1.56677088 153.93690066 1.56500816 155.56593895 C1.56336439 157.78540363 1.57997627 160.00399734 1.60127258 162.2233429 C1.60588155 163.46684163 1.61049051 164.71034037 1.61523914 165.99152088 C1.73786785 169.00968524 1.73786785 169.00968524 3.52492046 170.92354107 C4.01169671 171.27877252 4.49847296 171.63400396 5 172 C3.68197635 175.64991166 2.40785992 177.7895201 0 181 C0 121.27 0 61.54 0 0 Z " fill="#0F0F0F" transform="translate(267,120)"/>
<path d="M0 0 C3.63 0 7.26 0 11 0 C11.52529163 8.29960778 10.74200539 13.14102792 6 20 C4.35 20 2.7 20 1 20 C1.50712033 16.28111761 2.11608215 13.26545761 4 10 C2.68 10 1.36 10 0 10 C0 6.7 0 3.4 0 0 Z " fill="#ECECEC" transform="translate(378,622)"/>
<path d="M0 0 C3.96642325 0.56663189 6.86323874 1.45668006 10 4 C11.3125 7.6875 11.3125 7.6875 12 11 C10.34233202 12.65766798 8.39653595 12.21049503 6.125 12.25 C5.24070312 12.27578125 4.35640625 12.3015625 3.4453125 12.328125 C0.52471562 11.93622382 -0.07878164 11.12803507 -2 9 C-5.10839021 8.2730774 -5.10839021 8.2730774 -8 8 C-7.38125 7.54625 -6.7625 7.0925 -6.125 6.625 C-3.4610363 4.58785129 -1.87580423 2.81370635 0 0 Z " fill="#EAEAEA" transform="translate(422,622)"/>
<path d="M0 0 C3.60239038 3.13756581 3.9957244 3.97862202 5 9 C-22.39 9 -49.78 9 -78 9 C-78 8.67 -78 8.34 -78 8 C-52.59 8 -27.18 8 -1 8 C-1 6.02 -1 4.04 -1 2 C-0.67 1.34 -0.34 0.68 0 0 Z " fill="#DFDFDF" transform="translate(434,446)"/>
<path d="M0 0 C1.32 0.66 2.64 1.32 4 2 C4 2.66 4 3.32 4 4 C4.97839844 4.07347656 4.97839844 4.07347656 5.9765625 4.1484375 C15.88700565 4.99623352 15.88700565 4.99623352 20 7 C20.9375 9.0625 20.9375 9.0625 21 11 C20 12 20 12 17.93359375 12.09765625 C17.10988281 12.08605469 16.28617187 12.07445312 15.4375 12.0625 C14.61121094 12.05347656 13.78492188 12.04445313 12.93359375 12.03515625 C12.29550781 12.02355469 11.65742188 12.01195312 11 12 C10.67 10.35 10.34 8.7 10 7 C6.04 7 2.08 7 -2 7 C-2.33 5.68 -2.66 4.36 -3 3 C-3.33 3.99 -3.66 4.98 -4 6 C-4 4.68 -4 3.36 -4 2 C-2.68 2 -1.36 2 0 2 C0 1.34 0 0.68 0 0 Z " fill="#191919" transform="translate(401,640)"/>
<path d="M0 0 C0.66 1.32 1.32 2.64 2 4 C2.66 4 3.32 4 4 4 C4 6.31 4 8.62 4 11 C6.97 11 9.94 11 13 11 C12.34 12.32 11.68 13.64 11 15 C9.39667209 15.08121924 7.79215974 15.13929134 6.1875 15.1875 C5.29417969 15.22230469 4.40085937 15.25710938 3.48046875 15.29296875 C1 15 1 15 -0.8125 13.84375 C-2.47611355 11.26077106 -2.29488288 9.35501492 -2.1875 6.3125 C-2.16042969 5.31863281 -2.13335937 4.32476563 -2.10546875 3.30078125 C-2.07066406 2.54152344 -2.03585937 1.78226563 -2 1 C-1.34 0.67 -0.68 0.34 0 0 Z " fill="#090909" transform="translate(342,636)"/>
<path d="M0 0 C3.625 0.25 3.625 0.25 5.02734375 1.75390625 C6.56657735 3.49175241 6.56657735 3.49175241 9.10546875 3.54296875 C9.99878906 3.50816406 10.89210938 3.47335937 11.8125 3.4375 C12.71355469 3.41042969 13.61460937 3.38335938 14.54296875 3.35546875 C15.23003906 3.32066406 15.91710937 3.28585937 16.625 3.25 C16.955 2.26 17.285 1.27 17.625 0.25 C17.955 1.57 18.285 2.89 18.625 4.25 C17.635 4.58 16.645 4.91 15.625 5.25 C15.955 7.23 16.285 9.21 16.625 11.25 C15.965 11.25 15.305 11.25 14.625 11.25 C14.295 10.59 13.965 9.93 13.625 9.25 C10.76758915 8.4486381 7.95788557 7.75291494 5.0625 7.125 C4.25619141 6.94324219 3.44988281 6.76148438 2.61914062 6.57421875 C0.62276175 6.12532882 -1.3759198 5.68670257 -3.375 5.25 C-3.9375 3.3125 -3.9375 3.3125 -4.375 1.25 C-3.375 0.25 -3.375 0.25 0 0 Z " fill="#1E1E1E" transform="translate(416.375,629.75)"/>
<path d="M0 0 C4.19813062 3.74427866 6.07776117 6.8403063 8 12 C4.60085025 10.86695008 3.94745549 9.87481525 2 7 C1.01 7.66 0.02 8.32 -1 9 C-1.99 8.01 -2.98 7.02 -4 6 C-3.67 8.31 -3.34 10.62 -3 13 C-4.32 13.99 -5.64 14.98 -7 16 C-7 15.34 -7 14.68 -7 14 C-10.63 14 -14.26 14 -18 14 C-18 13.67 -18 13.34 -18 13 C-14.04 13 -10.08 13 -6 13 C-6 10.03 -6 7.06 -6 4 C-5.34 4 -4.68 4 -4 4 C-4 3.34 -4 2.68 -4 2 C-2.68 1.34 -1.36 0.68 0 0 Z " fill="#292929" transform="translate(217,647)"/>
<path d="M0 0 C2.475 0.99 2.475 0.99 5 2 C4.67 3.65 4.34 5.3 4 7 C4.99 7 5.98 7 7 7 C6.67 9.31 6.34 11.62 6 14 C4.35 14.66 2.7 15.32 1 16 C1 15.34 1 14.68 1 14 C0.34 14 -0.32 14 -1 14 C-1.02694851 12.04174127 -1.04637218 10.08337774 -1.0625 8.125 C-1.07410156 7.03445313 -1.08570313 5.94390625 -1.09765625 4.8203125 C-1 2 -1 2 0 0 Z " fill="#050505" transform="translate(507,633)"/>
<path d="M0 0 C4.62 0 9.24 0 14 0 C14 4.62 14 9.24 14 14 C17.96 14 21.92 14 26 14 C26 14.33 26 14.66 26 15 C22.7 15 19.4 15 16 15 C16 15.66 16 16.32 16 17 C15.34 17 14.68 17 14 17 C13.67 17.66 13.34 18.32 13 19 C12.34 19 11.68 19 11 19 C10 16 10 16 10 13 C10.99 13 11.98 13 13 13 C12.67 9.7 12.34 6.4 12 3 C8.37 2.67 4.74 2.34 1 2 C1 5.96 1 9.92 1 14 C0.67 14 0.34 14 0 14 C0 9.38 0 4.76 0 0 Z " fill="#2F2F2F" transform="translate(655,646)"/>
<path d="M0 0 C0.721875 0.61875 1.44375 1.2375 2.1875 1.875 C8.75369769 6.83612714 15.35364367 6.57338214 23.26953125 5.76953125 C24.85153712 5.54721271 26.42711152 5.27962462 28 5 C28 5.99 28 6.98 28 8 C26.34385343 8.38218767 24.67542976 8.71395102 23 9 C22.67 8.67 22.34 8.34 22 8 C20.14712498 7.92773498 18.29166122 7.9161878 16.4375 7.9375 C15.42558594 7.94652344 14.41367187 7.95554687 13.37109375 7.96484375 C12.58863281 7.97644531 11.80617188 7.98804688 11 8 C11 8.66 11 9.32 11 10 C6.545 10.495 6.545 10.495 2 11 C1 8 1 8 1 6 C0.67966043 3.99787771 0.34740923 1.99760305 0 0 Z " fill="#181818" transform="translate(330,654)"/>
<path d="M0 0 C0.66 0 1.32 0 2 0 C2.22786458 2.01822917 2.45572917 4.03645833 2.68359375 6.0546875 C2.91292961 8.07404316 2.91292961 8.07404316 4 10 C4.01614884 11.6696807 3.96515778 13.34028286 3.87890625 15.0078125 C3.83056641 15.99394531 3.78222656 16.98007812 3.73242188 17.99609375 C3.67634766 19.02863281 3.62027344 20.06117188 3.5625 21.125 C3.51029297 22.16527344 3.45808594 23.20554687 3.40429688 24.27734375 C3.27439054 26.85185116 3.13941748 29.42599296 3 32 C2.67 32 2.34 32 2 32 C2 24.74 2 17.48 2 10 C-2.29 10 -6.58 10 -11 10 C-10.67 8.35 -10.34 6.7 -10 5 C-9.67 5.66 -9.34 6.32 -9 7 C-5.37 7 -1.74 7 2 7 C1.34 4.69 0.68 2.38 0 0 Z " fill="#555555" transform="translate(365,628)"/>
<path d="M0 0 C0.66 0.33 1.32 0.66 2 1 C2 1.99 2 2.98 2 4 C5.34023421 4.09278428 7.68756695 3.82810826 11 3 C9.35 6.3 7.7 9.6 6 13 C5.34 13 4.68 13 4 13 C3.67 12.01 3.34 11.02 3 10 C2.34 9.67 1.68 9.34 1 9 C-0.1875 5.5625 -0.1875 5.5625 -1 2 C-0.67 1.34 -0.34 0.68 0 0 Z " fill="#171717" transform="translate(459,621)"/>
<path d="M0 0 C1.7325 0.7115625 1.7325 0.7115625 3.5 1.4375 C10.43869583 3.79866134 17.73987682 3.74166433 25 4 C25 4.33 25 4.66 25 5 C20.545 5.495 20.545 5.495 16 6 C16 6.33 16 6.66 16 7 C10.555 7.495 10.555 7.495 5 8 C5 5 5 5 6 3 C4.35 3.33 2.7 3.66 1 4 C0.67 2.68 0.34 1.36 0 0 Z " fill="#232323" transform="translate(360,201)"/>
<path d="M0 0 C2.97 0.495 2.97 0.495 6 1 C4.80100302 4.0831351 3.52299523 7.06279492 2 10 C0.35 10 -1.3 10 -3 10 C-2.49287967 6.28111761 -1.88391785 3.26545761 0 0 Z " fill="#DFDFDF" transform="translate(382,632)"/>
<path d="M0 0 C0.66 0.99 1.32 1.98 2 3 C2.66 2.01 3.32 1.02 4 0 C4.99 0.33 5.98 0.66 7 1 C5.35 4.3 3.7 7.6 2 11 C1.34 11 0.68 11 0 11 C-1.625 8.25 -1.625 8.25 -3 5 C-2.28739821 2.80281116 -1.61450567 1.61450567 0 0 Z " fill="#F2F2F2" transform="translate(553,450)"/>
<path d="M0 0 C3 1 3 1 5 4 C5 4.99 5 5.98 5 7 C2.03 7.66 -0.94 8.32 -4 9 C-1.125 1.125 -1.125 1.125 0 0 Z " fill="#DFDFDF" transform="translate(307,232)"/>
<path d="M0 0 C0.82638376 2.89234315 1 4.88742431 1 8 C0.01 8.495 0.01 8.495 -1 9 C-1 9.66 -1 10.32 -1 11 C-1.99 11.33 -2.98 11.66 -4 12 C-4.73323796 14.01508358 -4.73323796 14.01508358 -5 16 C-5.99 15.67 -6.98 15.34 -8 15 C-8.33 13.35 -8.66 11.7 -9 10 C-7.576875 9.6596875 -7.576875 9.6596875 -6.125 9.3125 C-2.84241868 8.31871416 -2.84241868 8.31871416 -1.6875 5.5625 C-1.460625 4.716875 -1.23375 3.87125 -1 3 C-0.67 2.01 -0.34 1.02 0 0 Z " fill="#292929" transform="translate(583,649)"/>
<path d="M0 0 C2.1519437 3.22791555 2.20086443 4.28400809 2 8 C1.67 8 1.34 8 1 8 C1 11.96 1 15.92 1 20 C0.34 20 -0.32 20 -1 20 C-1 15.05 -1 10.1 -1 5 C-4.96 5 -8.92 5 -13 5 C-13 4.67 -13 4.34 -13 4 C-9.37 4 -5.74 4 -2 4 C-2.33 3.01 -2.66 2.02 -3 1 C-2.01 0.67 -1.02 0.34 0 0 Z " fill="#212121" transform="translate(212,617)"/>
<path d="M0 0 C0.66 0.33 1.32 0.66 2 1 C-0.12780579 3.34058637 -2.11562221 4.70700306 -5 6 C-4.01 7.485 -4.01 7.485 -3 9 C-4.98 9.99 -4.98 9.99 -7 11 C-7.66 10.34 -8.32 9.68 -9 9 C-9.33 9.66 -9.66 10.32 -10 11 C-12.0625 11.625 -12.0625 11.625 -14 12 C-11.8150737 7.71902576 -9.50254336 5.64738376 -5.4375 3.125 C-4.46683594 2.50882813 -3.49617187 1.89265625 -2.49609375 1.2578125 C-1.26052734 0.63519531 -1.26052734 0.63519531 0 0 Z " fill="#DBDBDB" transform="translate(614,240)"/>
<path d="M0 0 C1.89213369 2.38573379 3.02391783 4.07175348 4 7 C3.67 7.66 3.34 8.32 3 9 C2.38125 8.814375 1.7625 8.62875 1.125 8.4375 C-1.04160178 7.76313824 -1.04160178 7.76313824 -3 9 C-3.12375 8.360625 -3.2475 7.72125 -3.375 7.0625 C-3.684375 6.0415625 -3.684375 6.0415625 -4 5 C-4.66 4.67 -5.32 4.34 -6 4 C-6 3.01 -6 2.02 -6 1 C-4.02 1.99 -4.02 1.99 -2 3 C-1.34 2.01 -0.68 1.02 0 0 Z " fill="#070707" transform="translate(219,652)"/>
<path d="M0 0 C0.33 0.99 0.66 1.98 1 3 C1.66 3 2.32 3 3 3 C3.33 2.01 3.66 1.02 4 0 C4.8252404 3.30096158 5.37001429 5.8033 4 9 C3.01 9.33 2.02 9.66 1 10 C-0.5625 8.3125 -0.5625 8.3125 -2 6 C-1.58974359 1.58974359 -1.58974359 1.58974359 0 0 Z " fill="#E8E8E8" transform="translate(532,410)"/>
<path d="M0 0 C0.66 1.32 1.32 2.64 2 4 C1.34 4 0.68 4 0 4 C0.12375 4.7425 0.2475 5.485 0.375 6.25 C0 9 0 9 -3 11.3125 C-3.99 11.869375 -4.98 12.42625 -6 13 C-6.33 12.34 -6.66 11.68 -7 11 C-5.56640625 8.3984375 -5.56640625 8.3984375 -3.5625 5.375 C-2.90378906 4.37210938 -2.24507813 3.36921875 -1.56640625 2.3359375 C-1.04949219 1.56507813 -0.53257812 0.79421875 0 0 Z " fill="#282828" transform="translate(479,630)"/>
<path d="M0 0 C3 1 3 1 4 3 C4.99 3.33 5.98 3.66 7 4 C8.1875 7.5625 8.1875 7.5625 9 11 C8.34 11.66 7.68 12.32 7 13 C5.83072457 11.02237345 4.66464427 9.04285742 3.5 7.0625 C2.8503125 5.96035156 2.200625 4.85820312 1.53125 3.72265625 C0 1 0 1 0 0 Z " fill="#1F1F1F" transform="translate(416,414)"/>
<path d="M0 0 C2.91375388 1.45687694 3.35777779 3.50753903 4.6875 6.4375 C5.14511719 7.42621094 5.60273438 8.41492188 6.07421875 9.43359375 C6.37972656 10.28050781 6.68523437 11.12742187 7 12 C6.67 12.66 6.34 13.32 6 14 C5.34 13.67 4.68 13.34 4 13 C4 12.34 4 11.68 4 11 C2.35 10.67 0.7 10.34 -1 10 C-0.67 9.34 -0.34 8.68 0 8 C0.2236068 5.0745356 0.2236068 5.0745356 -1 3 C-0.67 2.01 -0.34 1.02 0 0 Z " fill="#252525" transform="translate(498,350)"/>
<path d="M0 0 C0.99 0 1.98 0 3 0 C3.66 0.66 4.32 1.32 5 2 C2.03 6.95 2.03 6.95 -1 12 C-1.66 11.67 -2.32 11.34 -3 11 C-2.88590407 9.54077307 -2.75834456 8.08259402 -2.625 6.625 C-2.55539062 5.81289062 -2.48578125 5.00078125 -2.4140625 4.1640625 C-2 2 -2 2 0 0 Z " fill="#111111" transform="translate(292,249)"/>
<path d="M0 0 C0.66 0.33 1.32 0.66 2 1 C2 4 2 4 0.125 6.1875 C-2 8 -2 8 -4 8 C-4.33 8.66 -4.66 9.32 -5 10 C-7.0625 11.125 -7.0625 11.125 -9 12 C-7.54718935 6.67302761 -3.91888622 3.63597198 0 0 Z " fill="#D6D6D6" transform="translate(353,131)"/>
<path d="M0 0 C-0.66 1.32 -1.32 2.64 -2 4 C-5.3 4 -8.6 4 -12 4 C-12.33 3.34 -12.66 2.68 -13 2 C-12.01 1.67 -11.02 1.34 -10 1 C-6.78548731 -0.60725635 -3.56387464 -0.05748185 0 0 Z " fill="#121212" transform="translate(355,647)"/>
<path d="M0 0 C2.27024968 -0.08097324 4.54132075 -0.13917704 6.8125 -0.1875 C8.07707031 -0.22230469 9.34164063 -0.25710938 10.64453125 -0.29296875 C14 0 14 0 15.94921875 1.51171875 C16.29597656 2.00285156 16.64273437 2.49398437 17 3 C16.01 3.495 16.01 3.495 15 4 C14.67 4.99 14.34 5.98 14 7 C12.68 6.67 11.36 6.34 10 6 C10.66 4.68 11.32 3.36 12 2 C8.04 1.67 4.08 1.34 0 1 C0 0.67 0 0.34 0 0 Z " fill="#2A2A2A" transform="translate(471,621)"/>
<path d="M0 0 C0.66 0.66 1.32 1.32 2 2 C1.34 3.98 0.68 5.96 0 8 C0.66 8 1.32 8 2 8 C1.67 9.32 1.34 10.64 1 12 C0.38125 11.814375 -0.2375 11.62875 -0.875 11.4375 C-3.04160178 10.76313824 -3.04160178 10.76313824 -5 12 C-3.68938409 7.76570244 -2.05643741 3.92592596 0 0 Z " fill="#1C1C1C" transform="translate(566,437)"/>
<path d="M0 0 C0.66 0.33 1.32 0.66 2 1 C2.73075648 3.3140622 3.40138258 5.64828869 4 8 C4.66 8 5.32 8 6 8 C6.33 9.32 6.66 10.64 7 12 C5.68 12 4.36 12 3 12 C2.67 11.01 2.34 10.02 2 9 C1.01 9.495 1.01 9.495 0 10 C-0.19412181 8.52168779 -0.38012131 7.04230684 -0.5625 5.5625 C-0.66691406 4.73878906 -0.77132813 3.91507812 -0.87890625 3.06640625 C-0.91886719 2.38449219 -0.95882813 1.70257813 -1 1 C-0.67 0.67 -0.34 0.34 0 0 Z " fill="#191919" transform="translate(298,357)"/>
<path d="M0 0 C-1.81807837 2.32310014 -2.9165875 2.97775667 -5.8125 3.75 C-9.08829035 4.00692473 -11.79741378 3.68626847 -15 3 C-15 2.34 -15 1.68 -15 1 C-13.25215171 0.63536268 -11.50159498 0.2836922 -9.75 -0.0625 C-8.28820312 -0.35833984 -8.28820312 -0.35833984 -6.796875 -0.66015625 C-4.131881 -0.98397535 -2.51128277 -0.85503199 0 0 Z " fill="#141414" transform="translate(640,314)"/>
<path d="M0 0 C0.66 0.33 1.32 0.66 2 1 C1.67 2.32 1.34 3.64 1 5 C0.34 5 -0.32 5 -1 5 C-0.67 6.98 -0.34 8.96 0 11 C-0.66 11 -1.32 11 -2 11 C-2.33 10.34 -2.66 9.68 -3 9 C-5.01669827 7.86649466 -5.01669827 7.86649466 -7 7 C-6.67 6.01 -6.34 5.02 -6 4 C-4.02 3.67 -2.04 3.34 0 3 C0 2.01 0 1.02 0 0 Z " fill="#1D1D1D" transform="translate(433,630)"/>
<path d="M0 0 C1.0625 1.8125 1.0625 1.8125 2 4 C1.67 4.99 1.34 5.98 1 7 C1.66 7 2.32 7 3 7 C3.33 8.65 3.66 10.3 4 12 C-1.78461538 7.81538462 -1.78461538 7.81538462 -2.875 3.6875 C-2.91625 2.800625 -2.9575 1.91375 -3 1 C-2.01 0.67 -1.02 0.34 0 0 Z " fill="#ECECEC" transform="translate(351,186)"/>
<path d="M0 0 C3.08375495 1.02791832 3.87790925 1.70106836 6 4 C6.556875 4.556875 7.11375 5.11375 7.6875 5.6875 C8.3371875 6.3371875 8.3371875 6.3371875 9 7 C7.375 7.75 7.375 7.75 5 8 C1.75 6.0625 1.75 6.0625 -1 4 C-0.67 2.68 -0.34 1.36 0 0 Z " fill="#1A1A1A" transform="translate(606,305)"/>
<path d="M0 0 C0.33 0.66 0.66 1.32 1 2 C1.66 2 2.32 2 3 2 C3.33 1.34 3.66 0.68 4 0 C5.1004671 3.98919325 5.1004671 7.01080675 4 11 C1.47650757 7.87567603 -0.27256146 4.61939504 -2 1 C-1.34 0.67 -0.68 0.34 0 0 Z " fill="#1C1C1C" transform="translate(324,254)"/>
<path d="M0 0 C1 3 1 3 1 6 C0.34 6 -0.32 6 -1 6 C-1 6.99 -1 7.98 -1 9 C-3.5 10.6875 -3.5 10.6875 -6 12 C-5.57630928 10.3713449 -5.1355377 8.74712622 -4.6875 7.125 C-4.44386719 6.22007812 -4.20023438 5.31515625 -3.94921875 4.3828125 C-3 2 -3 2 0 0 Z " fill="#232323" transform="translate(670,284)"/>
<path d="M0 0 C3.125 0.375 3.125 0.375 6 1 C5.67 2.98 5.34 4.96 5 7 C2.0625 6.1875 2.0625 6.1875 -1 5 C-1.33 4.01 -1.66 3.02 -2 2 C-1.34 1.34 -0.68 0.68 0 0 Z " fill="#090909" transform="translate(322,249)"/>
<path d="M0 0 C0.33 0 0.66 0 1 0 C1.06058594 0.89203125 1.12117188 1.7840625 1.18359375 2.703125 C1.26738281 3.87359375 1.35117187 5.0440625 1.4375 6.25 C1.55931641 7.99023438 1.55931641 7.99023438 1.68359375 9.765625 C1.88433594 12.86702655 1.88433594 12.86702655 2.66015625 15.234375 C3 17 3 17 1 20 C-1.21452021 15.64703089 -1.07786638 11.91995366 -0.625 7.1875 C-0.56828125 6.49462891 -0.5115625 5.80175781 -0.453125 5.08789062 C-0.31269396 3.39101554 -0.15780593 1.69534752 0 0 Z " fill="#131313" transform="translate(326,636)"/>
<path d="M0 0 C4 4.5 4 4.5 4 9 C3.01 9 2.02 9 1 9 C-0.61949011 6.42786866 -1.04408751 5.32330841 -0.625 2.25 C-0.41875 1.5075 -0.2125 0.765 0 0 Z " fill="#202020" transform="translate(346,439)"/>
<path d="M0 0 C0.99 0.33 1.98 0.66 3 1 C0.59828316 4.25947285 -1.20903625 6.4836145 -5 8 C-5.99 8.495 -5.99 8.495 -7 9 C-7.99 8.34 -8.98 7.68 -10 7 C-8.71186658 6.16121545 -7.41936744 5.32913217 -6.125 4.5 C-5.40570313 4.0359375 -4.68640625 3.571875 -3.9453125 3.09375 C-2 2 -2 2 0 2 C0 1.34 0 0.68 0 0 Z " fill="#303030" transform="translate(511,567)"/>
<path d="M0 0 C0.33 0.66 0.66 1.32 1 2 C1.66 2 2.32 2 3 2 C4.06775224 3.96466413 5.06553465 5.96855359 6 8 C5.67 8.66 5.34 9.32 5 10 C1.125 8.25 1.125 8.25 0 6 C-0.039992 4.00039988 -0.04346799 1.99952758 0 0 Z " fill="#1F1F1F" transform="translate(307,373)"/>
<path d="M0 0 C2.00720923 0.28674418 4.0085944 0.61866701 6 1 C5.43628586 4.26954202 4.50037734 5.82575883 2 8 C1.01 5.69 0.02 3.38 -1 1 C-0.67 0.67 -0.34 0.34 0 0 Z " fill="#1F1F1F" transform="translate(562,313)"/>
<path d="M0 0 C0.33 0 0.66 0 1 0 C1.1953125 6.0546875 1.1953125 6.0546875 1 8 C0.34 8.66 -0.32 9.32 -1 10 C-3.29013653 6.5647952 -3.17842973 5.014669 -3 1 C-2.01 1.495 -2.01 1.495 -1 2 C-0.67 1.34 -0.34 0.68 0 0 Z " fill="#F1F1F1" transform="translate(223,644)"/>
<path d="M0 0 C4.875 2.625 4.875 2.625 6 6 C6.06740865 7.56118428 6.08514456 9.1250252 6.0625 10.6875 C6.05347656 11.49574219 6.04445313 12.30398438 6.03515625 13.13671875 C6.02355469 13.75160156 6.01195312 14.36648438 6 15 C5.67 15 5.34 15 5 15 C4.34 11.7 3.68 8.4 3 5 C2.34 5 1.68 5 1 5 C0.67 3.35 0.34 1.7 0 0 Z " fill="#2F2F2F" transform="translate(516,631)"/>
<path d="M0 0 C0.99 0.495 0.99 0.495 2 1 C2 2.32 2 3.64 2 5 C2.66 5 3.32 5 4 5 C4.66 6.98 5.32 8.96 6 11 C3 11 3 11 1.3125 9.4375 C-0.43416783 6.19368832 -0.20922503 3.62656715 0 0 Z " fill="#343434" transform="translate(482,318)"/>
<path d="M0 0 C0.66 0 1.32 0 2 0 C3.125 4.75 3.125 4.75 2 7 C0.02 6.34 -1.96 5.68 -4 5 C-3.67 4.01 -3.34 3.02 -3 2 C-2.01 2 -1.02 2 0 2 C0 1.34 0 0.68 0 0 Z " fill="#1C1C1C" transform="translate(429,618)"/>
<path d="M0 0 C0.66 0.33 1.32 0.66 2 1 C2 1.66 2 2.32 2 3 C3.32 3 4.64 3 6 3 C5.34 4.65 4.68 6.3 4 8 C-0.875 3.25 -0.875 3.25 -2 1 C-1.34 0.67 -0.68 0.34 0 0 Z " fill="#E9E9E9" transform="translate(452,558)"/>
<path d="M0 0 C1.65 1.32 3.3 2.64 5 4 C4.01 4.495 4.01 4.495 3 5 C2.34 4.67 1.68 4.34 1 4 C1 4.66 1 5.32 1 6 C-0.96147874 7.38938077 -2.96166576 8.7260411 -5 10 C-3.33333333 6.66666667 -1.66666667 3.33333333 0 0 Z " fill="#D6D6D6" transform="translate(298,247)"/>
<path d="M0 0 C3.63 0 7.26 0 11 0 C11.33 1.65 11.66 3.3 12 5 C11.67 4.34 11.34 3.68 11 3 C10.01 3 9.02 3 8 3 C8 2.34 8 1.68 8 1 C5.36 1 2.72 1 0 1 C0 0.67 0 0.34 0 0 Z M6 3 C6.66 3 7.32 3 8 3 C8 3.66 8 4.32 8 5 C7.34 5 6.68 5 6 5 C6 4.34 6 3.68 6 3 Z " fill="#383838" transform="translate(277,660)"/>
<path d="M0 0 C1.32 0 2.64 0 4 0 C4.5625 1.9375 4.5625 1.9375 5 4 C4 5 4 5 1.93359375 5.09765625 C1.10988281 5.08605469 0.28617187 5.07445312 -0.5625 5.0625 C-1.38878906 5.05347656 -2.21507812 5.04445313 -3.06640625 5.03515625 C-3.70449219 5.02355469 -4.34257812 5.01195312 -5 5 C-5 4.67 -5 4.34 -5 4 C-3.02 3.67 -1.04 3.34 1 3 C0.67 2.01 0.34 1.02 0 0 Z " fill="#2F2F2F" transform="translate(417,647)"/>
<path d="M0 0 C2 3 2 3 2 6 C0.02 6 -1.96 6 -4 6 C-3.6875 4.125 -3.6875 4.125 -3 2 C-2.01 1.34 -1.02 0.68 0 0 Z " fill="#F4F4F4" transform="translate(365,629)"/>
<path d="M0 0 C2.625 1.4375 2.625 1.4375 5 3 C4.34 4.65 3.68 6.3 3 8 C-0.875 3.25 -0.875 3.25 -2 1 C-1.34 0.67 -0.68 0.34 0 0 Z " fill="#161616" transform="translate(403,388)"/>
<path d="M0 0 C1.32 1.65 2.64 3.3 4 5 C3.67 5.66 3.34 6.32 3 7 C0.03 6.505 0.03 6.505 -3 6 C-2.01 4.02 -1.02 2.04 0 0 Z " fill="#212121" transform="translate(276,319)"/>
<path d="M0 0 C-1.25 1.5625 -1.25 1.5625 -3 3 C-4.75 2.6875 -4.75 2.6875 -7 2 C-9.33300933 1.96111651 -11.66709801 1.9551365 -14 2 C-14 1.67 -14 1.34 -14 1 C-12.23103898 0.63659714 -10.45973374 0.28459117 -8.6875 -0.0625 C-7.70136719 -0.25972656 -6.71523438 -0.45695313 -5.69921875 -0.66015625 C-3 -1 -3 -1 0 0 Z " fill="#202020" transform="translate(359,660)"/>
<path d="M0 0 C2.475 0.495 2.475 0.495 5 1 C5.33 2.65 5.66 4.3 6 6 C4.125 5.8125 4.125 5.8125 2 5 C0.75 2.4375 0.75 2.4375 0 0 Z " fill="#EDEDED" transform="translate(443,622)"/>
<path d="M0 0 C2.64 0.66 5.28 1.32 8 2 C7.01 2.33 6.02 2.66 5 3 C5 3.66 5 4.32 5 5 C3.35 4.67 1.7 4.34 0 4 C0 2.68 0 1.36 0 0 Z " fill="#141414" transform="translate(471,577)"/>
<path d="M0 0 C3.44216672 2.6598561 3.99504674 5.90288286 5 10 C3.68 9.34 2.36 8.68 1 8 C1 6.35 1 4.7 1 3 C0.34 2.67 -0.32 2.34 -1 2 C-0.67 1.34 -0.34 0.68 0 0 Z " fill="#2A2A2A" transform="translate(538,431)"/>
<path d="M0 0 C1.32 1.32 2.64 2.64 4 4 C3.67 4.99 3.34 5.98 3 7 C2.01 7 1.02 7 0 7 C-0.38133299 5.0085944 -0.71325582 3.00720923 -1 1 C-0.67 0.67 -0.34 0.34 0 0 Z " fill="#E1E1E1" transform="translate(514,377)"/>
<path d="M0 0 C3 3.625 3 3.625 3 7 C2.01 7.33 1.02 7.66 0 8 C-0.66 6.02 -1.32 4.04 -2 2 C-1.34 1.34 -0.68 0.68 0 0 Z " fill="#0E0E0E" transform="translate(589,361)"/>
<path d="M0 0 C2.97 0.33 5.94 0.66 9 1 C7.68 1.33 6.36 1.66 5 2 C5 2.66 5 3.32 5 4 C3.35 3.67 1.7 3.34 0 3 C0 2.01 0 1.02 0 0 Z " fill="#0D0D0D" transform="translate(336,660)"/>
<path d="M0 0 C3 3.75 3 3.75 3 6 C3.99 6.33 4.98 6.66 6 7 C5.67 7.99 5.34 8.98 5 10 C3.68 9.67 2.36 9.34 1 9 C0.67 6.03 0.34 3.06 0 0 Z " fill="#2E2E2E" transform="translate(547,651)"/>
<path d="M0 0 C2.74277578 3.19990508 4.6302836 6.00499382 6 10 C3 9 3 9 1 7 C1 5.68 1 4.36 1 3 C0.34 2.67 -0.32 2.34 -1 2 C-0.67 1.34 -0.34 0.68 0 0 Z " fill="#323232" transform="translate(219,649)"/>
<path d="M0 0 C0.81210937 0.29003906 1.62421875 0.58007812 2.4609375 0.87890625 C3.27820313 1.16636719 4.09546875 1.45382812 4.9375 1.75 C5.56398438 1.97816406 6.19046875 2.20632813 6.8359375 2.44140625 C6.8359375 2.77140625 6.8359375 3.10140625 6.8359375 3.44140625 C3.2059375 3.44140625 -0.4240625 3.44140625 -4.1640625 3.44140625 C-4.1640625 2.45140625 -4.1640625 1.46140625 -4.1640625 0.44140625 C-2.1640625 -0.55859375 -2.1640625 -0.55859375 0 0 Z " fill="#1E1E1E" transform="translate(382.1640625,618.55859375)"/>
<path d="M0 0 C0.66 0.33 1.32 0.66 2 1 C2.625 3.0625 2.625 3.0625 3 5 C2.195625 5.12375 1.39125 5.2475 0.5625 5.375 C-0.7059375 5.684375 -0.7059375 5.684375 -2 6 C-2.33 6.66 -2.66 7.32 -3 8 C-2.74438677 5.6568787 -2.40729228 3.32156597 -2 1 C-1.34 0.67 -0.68 0.34 0 0 Z " fill="#E0E0E0" transform="translate(428,435)"/>
<path d="M0 0 C0.99 0 1.98 0 3 0 C3.66 1.98 4.32 3.96 5 6 C3.35 5.67 1.7 5.34 0 5 C-0.5625 3.0625 -0.5625 3.0625 -1 1 C-0.67 0.67 -0.34 0.34 0 0 Z " fill="#212121" transform="translate(314,387)"/>
<path d="M0 0 C0.66 0.33 1.32 0.66 2 1 C1.39816251 3.02045442 0.72693904 5.02111039 0 7 C-0.99 7.495 -0.99 7.495 -2 8 C-2.33 6.02 -2.66 4.04 -3 2 C-2.01 1.34 -1.02 0.68 0 0 Z " fill="#2D2D2D" transform="translate(596,253)"/>
<path d="M0 0 C0.66 0 1.32 0 2 0 C2 0.66 2 1.32 2 2 C2.66 2 3.32 2 4 2 C6.1519437 5.22791555 6.20086443 6.28400809 6 10 C3.25722422 6.80009492 1.3697164 3.99500618 0 0 Z " fill="#2F2F2F" transform="translate(377,348)"/>
<path d="M0 0 C2.91517292 1.07401108 4.77810176 1.77810176 7 4 C4.6875 4.625 4.6875 4.625 2 5 C1.01 4.34 0.02 3.68 -1 3 C-0.34 3 0.32 3 1 3 C0.67 2.01 0.34 1.02 0 0 Z " fill="#171717" transform="translate(554,659)"/>
<path d="M0 0 C4 4.75 4 4.75 4 7 C3.01 7.33 2.02 7.66 1 8 C0.26919734 6.02253397 -0.39421747 4.01927511 -1 2 C-0.67 1.34 -0.34 0.68 0 0 Z " fill="#181818" transform="translate(491,337)"/>
<path d="M0 0 C0.66 0.99 1.32 1.98 2 3 C0.35 4.65 -1.3 6.3 -3 8 C-3 6.68 -3 5.36 -3 4 C-2.34 3.67 -1.68 3.34 -1 3 C-0.67 2.01 -0.34 1.02 0 0 Z " fill="#E9E9E9" transform="translate(661,294)"/>
<path d="M0 0 C2.64465038 3.1254959 3.84414715 6.08788267 5 10 C4.01 10.495 4.01 10.495 3 11 C3 9.68 3 8.36 3 7 C2.01 6.67 1.02 6.34 0 6 C0 4.02 0 2.04 0 0 Z " fill="#2D2D2D" transform="translate(452,257)"/>
<path d="M0 0 C2.875 -0.125 2.875 -0.125 6 0 C6.66 0.66 7.32 1.32 8 2 C5.69 2.66 3.38 3.32 1 4 C0.67 2.68 0.34 1.36 0 0 Z " fill="#161616" transform="translate(611,237)"/>
<path d="M0 0 C0.66 1.32 1.32 2.64 2 4 C0.68 5.65 -0.64 7.3 -2 9 C-2.6875 6.75 -2.6875 6.75 -3 4 C-1.5625 1.6875 -1.5625 1.6875 0 0 Z " fill="#E8E8E8" transform="translate(228,630)"/>
<path d="M0 0 C0.99 0 1.98 0 3 0 C2.67 2.64 2.34 5.28 2 8 C0.4375 6.8125 0.4375 6.8125 -1 5 C-0.6875 2.3125 -0.6875 2.3125 0 0 Z " fill="#171717" transform="translate(443,545)"/>
<path d="M0 0 C2.15377564 2.62198774 3.40072174 4.64404172 4 8 C2.35 7.01 0.7 6.02 -1 5 C-0.67 3.35 -0.34 1.7 0 0 Z " fill="#232323" transform="translate(548,451)"/>
<path d="M0 0 C0.33 0.66 0.66 1.32 1 2 C1.66 2 2.32 2 3 2 C3.66 3.98 4.32 5.96 5 8 C3.35 8 1.7 8 0 8 C0.66 6.35 1.32 4.7 2 3 C1.34 3 0.68 3 0 3 C0 2.01 0 1.02 0 0 Z " fill="#DEDEDE" transform="translate(346,297)"/>
<path d="M0 0 C2.52588702 2.36292656 3.88820837 3.66462511 5 7 C4.01 7.495 4.01 7.495 3 8 C2.67 7.34 2.34 6.68 2 6 C1.01 6.495 1.01 6.495 0 7 C-0.93423645 3.98968256 -1.04449911 3.13349732 0 0 Z " fill="#DADADA" transform="translate(332,273)"/>
<path d="M0 0 C0.66 0 1.32 0 2 0 C2.625 2.3125 2.625 2.3125 3 5 C2.01 6.485 2.01 6.485 1 8 C0.34 5.69 -0.32 3.38 -1 1 C-0.67 0.67 -0.34 0.34 0 0 Z " fill="#1A1A1A" transform="translate(534,257)"/>
<path d="M0 0 C1.485 0.99 1.485 0.99 3 2 C3.1875 4.625 3.1875 4.625 3 7 C2.01 7.33 1.02 7.66 0 8 C0 5.36 0 2.72 0 0 Z " fill="#080808" transform="translate(212,623)"/>
<path d="M0 0 C0.625 1.8125 0.625 1.8125 1 4 C-1 7 -1 7 -4 8 C-3.67 6.35 -3.34 4.7 -3 3 C-2.34 3 -1.68 3 -1 3 C-0.67 2.01 -0.34 1.02 0 0 Z " fill="#CACACA" transform="translate(453,516)"/>
<path d="M0 0 C0.33 0.99 0.66 1.98 1 3 C1.99 3 2.98 3 4 3 C3.34 4.65 2.68 6.3 2 8 C0.4375 6.25 0.4375 6.25 -1 4 C-0.6875 1.75 -0.6875 1.75 0 0 Z " fill="#ECECEC" transform="translate(268,299)"/>
<path d="M0 0 C0 2.62113708 -0.31292445 4.50935112 -1 7 C-1.99 7 -2.98 7 -4 7 C-4 4 -4 4 -2 1.8125 C-1.34 1.214375 -0.68 0.61625 0 0 Z " fill="#323232" transform="translate(408,193)"/>
<path d="M0 0 C2.64 0 5.28 0 8 0 C8 0.66 8 1.32 8 2 C4.71303767 2.79953138 3.28976808 3.09658936 0 2 C0 1.34 0 0.68 0 0 Z " fill="#080808" transform="translate(277,661)"/>
<path d="M0 0 C1.134375 0.020625 2.26875 0.04125 3.4375 0.0625 C3.4375 0.3925 3.4375 0.7225 3.4375 1.0625 C2.2309375 1.248125 2.2309375 1.248125 1 1.4375 C0.154375 1.64375 -0.69125 1.85 -1.5625 2.0625 C-1.8925 2.7225 -2.2225 3.3825 -2.5625 4.0625 C-1.5725 4.3925 -0.5825 4.7225 0.4375 5.0625 C-0.8825 5.0625 -2.2025 5.0625 -3.5625 5.0625 C-4.125 3.125 -4.125 3.125 -4.5625 1.0625 C-3.5625 0.0625 -3.5625 0.0625 0 0 Z " fill="#3B3B3B" transform="translate(416.5625,629.9375)"/>
<path d="M0 0 C1.32 1.32 2.64 2.64 4 4 C3.67 4.66 3.34 5.32 3 6 C2.34 5.67 1.68 5.34 1 5 C0.67 5.66 0.34 6.32 0 7 C-1.125 2.25 -1.125 2.25 0 0 Z " fill="#D6D6D6" transform="translate(434,446)"/>
<path d="M0 0 C1.125 3.75 1.125 3.75 0 6 C-0.99 5.67 -1.98 5.34 -3 5 C-2.625 3.0625 -2.625 3.0625 -2 1 C-1.34 0.67 -0.68 0.34 0 0 Z " fill="#090909" transform="translate(605,305)"/>
<path d="M0 0 C0.66 0.99 1.32 1.98 2 3 C0.35 4.65 -1.3 6.3 -3 8 C-3 4.42424104 -1.91159393 2.94704065 0 0 Z " fill="#D4D4D4" transform="translate(277,284)"/>
<path d="M0 0 C0 0.66 0 1.32 0 2 C0.66 2.33 1.32 2.66 2 3 C1.34 3 0.68 3 0 3 C-0.33 3.66 -0.66 4.32 -1 5 C-2.32 3.68 -3.64 2.36 -5 1 C-3 0 -3 0 0 0 Z " fill="#282828" transform="translate(657,242)"/>
<path d="M0 0 C2.97 0.99 5.94 1.98 9 3 C6.07175348 3.97608217 4.04386724 4.08226668 1 4 C0.67 2.68 0.34 1.36 0 0 Z " fill="#292929" transform="translate(360,201)"/>
<path d="M0 0 C1.65 1.65 3.3 3.3 5 5 C4.67 5.99 4.34 6.98 4 8 C3.34 8 2.68 8 2 8 C2 7.01 2 6.02 2 5 C1.34 4.67 0.68 4.34 0 4 C0 2.68 0 1.36 0 0 Z " fill="#383838" transform="translate(346,189)"/>
</svg>
